<svg xmlns="http://www.w3.org/2000/svg" width="256" height="256" viewBox="0 0 256 256" role="img" aria-labelledby="title-gear-heavy-armor-t2-rare desc-gear-heavy-armor-t2-rare">
  <title id="title-gear-heavy-armor-t2-rare">gear_heavy_armor_t2_rare</title>
  <desc id="desc-gear-heavy-armor-t2-rare">Original local SVG placeholder for equipment asset gear_heavy_armor_t2_rare. No external or copyrighted asset.</desc>
  <defs>
    <radialGradient id="bg-gear-heavy-armor-t2-rare" cx="35%" cy="22%" r="80%">
      <stop offset="0" stop-color="#f59e0b" stop-opacity="0.95"/>
      <stop offset="0.42" stop-color="#8b5cf6" stop-opacity="0.86"/>
      <stop offset="1" stop-color="#020617"/>
    </radialGradient>
    <linearGradient id="frame-gear-heavy-armor-t2-rare" x1="0" x2="1" y1="0" y2="1">
      <stop offset="0" stop-color="#fde68a"/>
      <stop offset="0.52" stop-color="#8b5cf6"/>
      <stop offset="1" stop-color="#b45309"/>
    </linearGradient>
    <filter id="shadow-gear-heavy-armor-t2-rare" x="-20%" y="-20%" width="140%" height="140%">
      <feDropShadow dx="0" dy="8" stdDeviation="8" flood-color="#000000" flood-opacity="0.5"/>
    </filter>
  </defs>
  <rect width="256" height="256" rx="32" fill="url(#bg-gear-heavy-armor-t2-rare)"/>
  <rect x="14" y="14" width="228" height="228" rx="26" fill="none" stroke="url(#frame-gear-heavy-armor-t2-rare)" stroke-width="8"/>
  <circle cx="200" cy="54" r="22" fill="#fde68a" opacity="0.22"/>
  <circle cx="48" cy="198" r="34" fill="#f59e0b" opacity="0.12"/>
  <g filter="url(#shadow-gear-heavy-armor-t2-rare)">
    <path d="M72 58 H140 L154 92 L134 170 H78 L58 92 Z M82 82 H130 V144 H82 Z" fill="#f8fafc" opacity="0.94"/>
    <path d="M72 58 H140 L154 92 L134 170 H78 L58 92 Z M82 82 H130 V144 H82 Z" fill="none" stroke="#fde68a" stroke-width="4" opacity="0.55"/>
  </g>
  <rect x="38" y="202" width="180" height="24" rx="12" fill="#020617" opacity="0.45"/>
  <text x="128" y="219" text-anchor="middle" font-family="Arial, sans-serif" font-size="12" font-weight="700" fill="#e5e7eb">T2 / Rare</text>
</svg>
