<svg xmlns="http://www.w3.org/2000/svg" width="256" height="256" viewBox="0 0 256 256" role="img" aria-labelledby="title-gear-charm-t1-common desc-gear-charm-t1-common">
  <title id="title-gear-charm-t1-common">gear_charm_t1_common</title>
  <desc id="desc-gear-charm-t1-common">Original local SVG placeholder for equipment asset gear_charm_t1_common. No external or copyrighted asset.</desc>
  <defs>
    <radialGradient id="bg-gear-charm-t1-common" cx="35%" cy="22%" r="80%">
      <stop offset="0" stop-color="#38bdf8" stop-opacity="0.95"/>
      <stop offset="0.42" stop-color="#94a3b8" stop-opacity="0.86"/>
      <stop offset="1" stop-color="#020617"/>
    </radialGradient>
    <linearGradient id="frame-gear-charm-t1-common" x1="0" x2="1" y1="0" y2="1">
      <stop offset="0" stop-color="#cbd5e1"/>
      <stop offset="0.52" stop-color="#94a3b8"/>
      <stop offset="1" stop-color="#334155"/>
    </linearGradient>
    <filter id="shadow-gear-charm-t1-common" x="-20%" y="-20%" width="140%" height="140%">
      <feDropShadow dx="0" dy="8" stdDeviation="8" flood-color="#000000" flood-opacity="0.5"/>
    </filter>
  </defs>
  <rect width="256" height="256" rx="32" fill="url(#bg-gear-charm-t1-common)"/>
  <rect x="14" y="14" width="228" height="228" rx="26" fill="none" stroke="url(#frame-gear-charm-t1-common)" stroke-width="8"/>
  <circle cx="200" cy="54" r="22" fill="#cbd5e1" opacity="0.22"/>
  <circle cx="48" cy="198" r="34" fill="#38bdf8" opacity="0.12"/>
  <g filter="url(#shadow-gear-charm-t1-common)">
    <path d="M106 50 L154 82 L144 146 L106 174 L68 146 L58 82 Z M106 82 L128 98 L122 132 L106 148 L90 132 L84 98 Z" fill="#f8fafc" opacity="0.94"/>
    <path d="M106 50 L154 82 L144 146 L106 174 L68 146 L58 82 Z M106 82 L128 98 L122 132 L106 148 L90 132 L84 98 Z" fill="none" stroke="#cbd5e1" stroke-width="4" opacity="0.55"/>
  </g>
  <rect x="38" y="202" width="180" height="24" rx="12" fill="#020617" opacity="0.45"/>
  <text x="128" y="219" text-anchor="middle" font-family="Arial, sans-serif" font-size="12" font-weight="700" fill="#e5e7eb">T1 / Common</text>
</svg>
