<svg xmlns="http://www.w3.org/2000/svg" width="256" height="256" viewBox="0 0 256 256" role="img" aria-labelledby="title-bg-chapter-3-stone-valley desc-bg-chapter-3-stone-valley">
  <title id="title-bg-chapter-3-stone-valley">bg chapter 3 stone valley</title>
  <desc id="desc-bg-chapter-3-stone-valley">Original local SVG placeholder for ui/icon asset bg_chapter_3_stone_valley. No external or copyrighted asset.</desc>
  <defs>
    <radialGradient id="bg-bg-chapter-3-stone-valley" cx="35%" cy="22%" r="80%">
      <stop offset="0" stop-color="#84cc16" stop-opacity="0.95"/>
      <stop offset="0.42" stop-color="#22c55e" stop-opacity="0.86"/>
      <stop offset="1" stop-color="#020617"/>
    </radialGradient>
    <linearGradient id="frame-bg-chapter-3-stone-valley" x1="0" x2="1" y1="0" y2="1">
      <stop offset="0" stop-color="#86efac"/>
      <stop offset="0.52" stop-color="#22c55e"/>
      <stop offset="1" stop-color="#0f766e"/>
    </linearGradient>
    <filter id="shadow-bg-chapter-3-stone-valley" x="-20%" y="-20%" width="140%" height="140%">
      <feDropShadow dx="0" dy="8" stdDeviation="8" flood-color="#000000" flood-opacity="0.5"/>
    </filter>
  </defs>
  <rect width="256" height="256" rx="32" fill="url(#bg-bg-chapter-3-stone-valley)"/>
  <rect x="14" y="14" width="228" height="228" rx="26" fill="none" stroke="url(#frame-bg-chapter-3-stone-valley)" stroke-width="8"/>
  <circle cx="200" cy="54" r="22" fill="#86efac" opacity="0.22"/>
  <circle cx="48" cy="198" r="34" fill="#84cc16" opacity="0.12"/>
  <g filter="url(#shadow-bg-chapter-3-stone-valley)">
    <path d="M38 154 C62 98 94 78 124 106 C146 60 184 66 190 130 C194 170 156 190 106 182 C74 176 48 172 38 154 Z" fill="#f8fafc" opacity="0.94"/>
    <path d="M38 154 C62 98 94 78 124 106 C146 60 184 66 190 130 C194 170 156 190 106 182 C74 176 48 172 38 154 Z" fill="none" stroke="#86efac" stroke-width="4" opacity="0.55"/>
  </g>
  <rect x="38" y="202" width="180" height="24" rx="12" fill="#020617" opacity="0.45"/>
  <text x="128" y="219" text-anchor="middle" font-family="Arial, sans-serif" font-size="12" font-weight="700" fill="#e5e7eb">UI asset</text>
</svg>
