<svg xmlns="http://www.w3.org/2000/svg" width="256" height="256" viewBox="0 0 256 256" role="img" aria-labelledby="title-icon-stage-completed desc-icon-stage-completed">
  <title id="title-icon-stage-completed">icon stage completed</title>
  <desc id="desc-icon-stage-completed">Original local SVG placeholder for ui/icon asset icon_stage_completed. No external or copyrighted asset.</desc>
  <defs>
    <radialGradient id="bg-icon-stage-completed" cx="35%" cy="22%" r="80%">
      <stop offset="0" stop-color="#8b5cf6" stop-opacity="0.95"/>
      <stop offset="0.42" stop-color="#22c55e" stop-opacity="0.86"/>
      <stop offset="1" stop-color="#020617"/>
    </radialGradient>
    <linearGradient id="frame-icon-stage-completed" x1="0" x2="1" y1="0" y2="1">
      <stop offset="0" stop-color="#86efac"/>
      <stop offset="0.52" stop-color="#22c55e"/>
      <stop offset="1" stop-color="#0f766e"/>
    </linearGradient>
    <filter id="shadow-icon-stage-completed" x="-20%" y="-20%" width="140%" height="140%">
      <feDropShadow dx="0" dy="8" stdDeviation="8" flood-color="#000000" flood-opacity="0.5"/>
    </filter>
  </defs>
  <rect width="256" height="256" rx="32" fill="url(#bg-icon-stage-completed)"/>
  <rect x="14" y="14" width="228" height="228" rx="26" fill="none" stroke="url(#frame-icon-stage-completed)" stroke-width="8"/>
  <circle cx="200" cy="54" r="22" fill="#86efac" opacity="0.22"/>
  <circle cx="48" cy="198" r="34" fill="#8b5cf6" opacity="0.12"/>
  <g filter="url(#shadow-icon-stage-completed)">
    <path d="M106 46 L134 82 L178 86 L146 116 L158 160 L106 136 L54 160 L66 116 L34 86 L78 82 Z" fill="#f8fafc" opacity="0.94"/>
    <path d="M106 46 L134 82 L178 86 L146 116 L158 160 L106 136 L54 160 L66 116 L34 86 L78 82 Z" fill="none" stroke="#86efac" stroke-width="4" opacity="0.55"/>
  </g>
  <rect x="38" y="202" width="180" height="24" rx="12" fill="#020617" opacity="0.45"/>
  <text x="128" y="219" text-anchor="middle" font-family="Arial, sans-serif" font-size="12" font-weight="700" fill="#e5e7eb">UI asset</text>
</svg>
