<svg xmlns="http://www.w3.org/2000/svg" width="256" height="256" viewBox="0 0 256 256" role="img" aria-labelledby="title-portrait-boss-ch4-main desc-portrait-boss-ch4-main">
  <title id="title-portrait-boss-ch4-main">portrait boss ch4 main</title>
  <desc id="desc-portrait-boss-ch4-main">Original local SVG placeholder for ui/icon asset portrait_boss_ch4_main. No external or copyrighted asset.</desc>
  <defs>
    <radialGradient id="bg-portrait-boss-ch4-main" cx="35%" cy="22%" r="80%">
      <stop offset="0" stop-color="#fb7185" stop-opacity="0.95"/>
      <stop offset="0.42" stop-color="#8b5cf6" stop-opacity="0.86"/>
      <stop offset="1" stop-color="#020617"/>
    </radialGradient>
    <linearGradient id="frame-portrait-boss-ch4-main" x1="0" x2="1" y1="0" y2="1">
      <stop offset="0" stop-color="#fde68a"/>
      <stop offset="0.52" stop-color="#8b5cf6"/>
      <stop offset="1" stop-color="#b45309"/>
    </linearGradient>
    <filter id="shadow-portrait-boss-ch4-main" x="-20%" y="-20%" width="140%" height="140%">
      <feDropShadow dx="0" dy="8" stdDeviation="8" flood-color="#000000" flood-opacity="0.5"/>
    </filter>
  </defs>
  <rect width="256" height="256" rx="32" fill="url(#bg-portrait-boss-ch4-main)"/>
  <rect x="14" y="14" width="228" height="228" rx="26" fill="none" stroke="url(#frame-portrait-boss-ch4-main)" stroke-width="8"/>
  <circle cx="200" cy="54" r="22" fill="#fde68a" opacity="0.22"/>
  <circle cx="48" cy="198" r="34" fill="#fb7185" opacity="0.12"/>
  <g filter="url(#shadow-portrait-boss-ch4-main)">
    <path d="M116 58 L140 82 L86 150 L62 126 Z M65 134 L78 147 L52 170 L42 160 Z" fill="#f8fafc" opacity="0.94"/>
    <path d="M116 58 L140 82 L86 150 L62 126 Z M65 134 L78 147 L52 170 L42 160 Z" fill="none" stroke="#fde68a" stroke-width="4" opacity="0.55"/>
  </g>
  <rect x="38" y="202" width="180" height="24" rx="12" fill="#020617" opacity="0.45"/>
  <text x="128" y="219" text-anchor="middle" font-family="Arial, sans-serif" font-size="12" font-weight="700" fill="#e5e7eb">UI asset</text>
</svg>
