<svg xmlns="http://www.w3.org/2000/svg" width="256" height="256" viewBox="0 0 256 256" role="img" aria-labelledby="title-ui-chapter-tab-locked desc-ui-chapter-tab-locked">
  <title id="title-ui-chapter-tab-locked">ui chapter tab locked</title>
  <desc id="desc-ui-chapter-tab-locked">Original local SVG placeholder for ui/icon asset ui_chapter_tab_locked. No external or copyrighted asset.</desc>
  <defs>
    <radialGradient id="bg-ui-chapter-tab-locked" cx="35%" cy="22%" r="80%">
      <stop offset="0" stop-color="#fb7185" stop-opacity="0.95"/>
      <stop offset="0.42" stop-color="#22c55e" stop-opacity="0.86"/>
      <stop offset="1" stop-color="#020617"/>
    </radialGradient>
    <linearGradient id="frame-ui-chapter-tab-locked" x1="0" x2="1" y1="0" y2="1">
      <stop offset="0" stop-color="#86efac"/>
      <stop offset="0.52" stop-color="#22c55e"/>
      <stop offset="1" stop-color="#0f766e"/>
    </linearGradient>
    <filter id="shadow-ui-chapter-tab-locked" x="-20%" y="-20%" width="140%" height="140%">
      <feDropShadow dx="0" dy="8" stdDeviation="8" flood-color="#000000" flood-opacity="0.5"/>
    </filter>
  </defs>
  <rect width="256" height="256" rx="32" fill="url(#bg-ui-chapter-tab-locked)"/>
  <rect x="14" y="14" width="228" height="228" rx="26" fill="none" stroke="url(#frame-ui-chapter-tab-locked)" stroke-width="8"/>
  <circle cx="200" cy="54" r="22" fill="#86efac" opacity="0.22"/>
  <circle cx="48" cy="198" r="34" fill="#fb7185" opacity="0.12"/>
  <g filter="url(#shadow-ui-chapter-tab-locked)">
    <path d="M54 70 H158 C174 70 186 82 186 98 V154 C186 170 174 182 158 182 H54 C38 182 26 170 26 154 V98 C26 82 38 70 54 70 Z M48 98 H164 M48 128 H128" fill="#f8fafc" opacity="0.94"/>
    <path d="M54 70 H158 C174 70 186 82 186 98 V154 C186 170 174 182 158 182 H54 C38 182 26 170 26 154 V98 C26 82 38 70 54 70 Z M48 98 H164 M48 128 H128" fill="none" stroke="#86efac" stroke-width="4" opacity="0.55"/>
  </g>
  <rect x="38" y="202" width="180" height="24" rx="12" fill="#020617" opacity="0.45"/>
  <text x="128" y="219" text-anchor="middle" font-family="Arial, sans-serif" font-size="12" font-weight="700" fill="#e5e7eb">UI asset</text>
</svg>
